<?xml version="1.0" encoding="utf-8"?>
<!-- Generator: Adobe Illustrator 16.0.0, SVG Export Plug-In . SVG Version: 6.00 Build 0)  -->
<!DOCTYPE svg PUBLIC "-//W3C//DTD SVG 1.1//EN" "http://www.w3.org/Graphics/SVG/1.1/DTD/svg11.dtd">
<svg version="1.1" id="Layer_1" xmlns="http://www.w3.org/2000/svg" xmlns:xlink="http://www.w3.org/1999/xlink" x="0px" y="0px"
	 width="78.3px" height="30.8px" viewBox="0 328.9 78.3 30.8" style="enable-background:new 0 328.9 78.3 30.8;"
	 xml:space="preserve">
<style type="text/css">
<![CDATA[
	.st0{fill:#FDFDFD;}
	.st1{fill:#6A6A6A;}
	.st2{fill:#388FD1;}
]]>
</style>
<g>
	<path class="st0" d="M39.2,359.7c-12.7,0-25.3,0-38,0c-1,0-1.2-0.2-1.2-1.2c0-9.5,0-18.9,0-28.4c0-1,0.2-1.2,1.2-1.2
		c25.3,0,50.6,0,76,0c1,0,1.2,0.2,1.2,1.2c0,9.5,0,18.9,0,28.4c0,1-0.2,1.2-1.2,1.2C64.5,359.7,51.8,359.7,39.2,359.7z M27.1,340.6
		c0-3.1,0-5.8,0-8.6c0-1,0.5-2.2-1.5-2.1c-1.8,0-1.4,1.1-1.4,2.1c0,5.1,0,10.2,0,15.3c0,6.9,4.8,11.6,11.7,11.4
		c5.5-0.1,10.3-5.1,10.3-10.9c0-5.7-4.7-10.7-10.2-11C32.5,336.7,29.7,338,27.1,340.6z M19.4,355.4c0,0.4,0.1,0.6,0,0.8
		c-0.2,1.1,0.1,1.5,1.4,1.5c1.2,0,1.4-0.5,1.4-1.5c-0.1-2.8,0-5.6,0-8.4c0-6.3-4.7-10.9-10.9-10.9c-4.8,0-8.8,2.9-10.3,7.5
		C-0.6,349,1.1,354,5,356.8c3.8,2.7,9,2.6,12.8-0.2C18.3,356.2,18.8,355.9,19.4,355.4z M69.3,343.7c-1.9-5-7.3-7.9-12.5-6.6
		c-5.5,1.3-9.1,6.3-8.5,11.9c0.6,5.3,5.1,9.6,10.2,9.7c5.2,0.1,10-3,10.6-7c-1.2,0.3-2.5-0.5-3.6,0.9c-2.7,3.7-8.1,4.2-11.6,1.3
		c-3.5-3-3.8-8.3-0.7-11.6c3.3-3.4,8.6-3.6,11.7,0.1C66.3,343.8,67.6,344,69.3,343.7z M77.6,354.4c0-2-1.6-3.7-3.7-3.7
		c-2,0-3.6,1.6-3.6,3.5c-0.1,2,1.5,3.7,3.6,3.7C76,358.1,77.6,356.4,77.6,354.4z"/>
	<path class="st2" d="M27.1,340.6c2.6-2.6,5.4-3.9,8.9-3.8c5.5,0.2,10.2,5.3,10.2,11c0,5.7-4.8,10.7-10.3,10.9
		c-6.9,0.1-11.7-4.5-11.7-11.4c0-5.1,0-10.2,0-15.3c0-1-0.4-2,1.4-2.1c1.9,0,1.4,1.1,1.5,2.1C27.1,334.8,27.1,337.6,27.1,340.6z
		 M35.2,355.7c4.5,0,8.1-3.6,8.1-8c0-4.4-3.6-7.9-8-7.9c-4.5,0-8.2,3.5-8.2,7.9C27.1,352.1,30.7,355.7,35.2,355.7z"/>
	<path class="st2" d="M19.4,355.4c-0.6,0.5-1.1,0.8-1.6,1.2c-3.8,2.8-9,2.9-12.8,0.2c-4-2.8-5.6-7.8-4.1-12.4
		c1.5-4.5,5.5-7.5,10.3-7.5c6.3,0,10.9,4.6,10.9,10.9c0,2.8,0,5.6,0,8.4c0,1.1-0.2,1.5-1.4,1.5c-1.2,0-1.5-0.5-1.4-1.5
		C19.5,356,19.4,355.8,19.4,355.4z M11.3,339.8c-4.5,0-8,3.4-8,7.9c0,4.6,3.4,8.1,8,8.1c4.5,0,8-3.5,8-7.9
		C19.4,343.3,15.9,339.8,11.3,339.8z"/>
	<path class="st1" d="M69.3,343.7c-1.7,0.2-3,0.1-4.2-1.4c-3.1-3.6-8.4-3.5-11.7-0.1c-3.2,3.3-2.9,8.6,0.7,11.6
		c3.5,3,8.8,2.5,11.6-1.3c1.1-1.5,2.4-0.6,3.6-0.9c-0.6,3.9-5.4,7.1-10.6,7c-5.1-0.1-9.6-4.4-10.2-9.7c-0.6-5.5,3-10.6,8.5-11.9
		C62,335.9,67.4,338.7,69.3,343.7z"/>
	<path class="st1" d="M77.6,354.4c0,2-1.7,3.6-3.7,3.6c-2,0-3.6-1.7-3.6-3.7c0.1-2,1.7-3.5,3.6-3.5C76,350.7,77.7,352.4,77.6,354.4z
		 M74,351.7c-1.6,0-2.7,1.1-2.7,2.7c0,1.5,1.1,2.6,2.6,2.7c1.6,0.1,2.8-1.1,2.8-2.6C76.7,352.9,75.6,351.7,74,351.7z"/>
	<path class="st0" d="M35.2,355.7c-4.5,0-8.1-3.6-8.1-8c0-4.4,3.7-7.9,8.2-7.9c4.4,0,8,3.6,8,7.9C43.3,352.2,39.7,355.7,35.2,355.7z
		"/>
	<path class="st0" d="M11.3,339.8c4.5,0,8,3.5,8,8.1c0,4.4-3.6,7.9-8,7.9c-4.5,0-8-3.5-8-8.1C3.4,343.3,6.9,339.8,11.3,339.8z"/>
	<path class="st0" d="M74,351.7c1.5,0,2.7,1.2,2.7,2.8c0,1.5-1.2,2.7-2.8,2.6c-1.5-0.1-2.6-1.2-2.6-2.7
		C71.3,352.8,72.5,351.7,74,351.7z"/>
</g>
</svg>
